<svg width="29" height="29" viewBox="0 0 29 29" fill="none" xmlns="http://www.w3.org/2000/svg">
<circle cx="14.5" cy="14.5" r="14.5" fill="#203078"/>
<path d="M22.0299 11.7277H20.66H7.86304C7.17544 11.7277 6.6159 11.1692 6.61417 10.4819V10.4786C6.61417 10.4783 6.61413 10.4779 6.61413 10.4776C6.61478 9.7895 7.17476 9.22984 7.86304 9.22984H9.98078C10.1504 9.22984 10.2878 9.09239 10.2878 8.9228C10.2878 8.75321 10.1504 8.61575 9.98078 8.61575H7.86304C6.83574 8.61575 6 9.45153 6 10.4788C6 10.4799 6.00008 10.4809 6.00008 10.482V20.7451C6.00008 20.9147 6.13754 21.0522 6.30713 21.0522C6.47676 21.0522 6.61417 20.9147 6.61417 20.7451V11.86C6.94484 12.1593 7.38297 12.3418 7.86304 12.3418H20.66H22.0299C22.3772 12.3418 22.6597 12.6243 22.6597 12.9716V15.1459C22.6597 15.3155 22.7972 15.4529 22.9668 15.4529C23.1363 15.4529 23.2738 15.3155 23.2738 15.1459V12.9716C23.2738 12.2857 22.7158 11.7277 22.0299 11.7277Z" fill="white"/>
<path d="M22.9667 20.3211C22.7971 20.3211 22.6597 20.4586 22.6597 20.6282V23.4005C22.6597 23.7478 22.3772 24.0302 22.0299 24.0302H7.86286C7.17433 24.0302 6.61415 23.4699 6.61415 22.7811V21.7686C6.61415 21.599 6.47674 21.4616 6.30711 21.4616C6.13752 21.4616 6.00006 21.599 6.00006 21.7686V22.7811C6.00006 23.8085 6.83572 24.6443 7.86286 24.6443H22.0299C22.7158 24.6443 23.2738 24.0864 23.2738 23.4005V20.6282C23.2737 20.4586 23.1363 20.3211 22.9667 20.3211Z" fill="white"/>
<path d="M22.3134 8.61588H22.0697C21.9001 8.61588 21.7627 8.75333 21.7627 8.92292C21.7627 9.09251 21.9002 9.22996 22.0697 9.22996H22.3134C22.5044 9.22996 22.6598 9.38532 22.6598 9.57628V11.3515C22.6598 11.521 22.7972 11.6585 22.9668 11.6585C23.1364 11.6585 23.2739 11.521 23.2739 11.3515V9.57628C23.2738 9.04667 22.843 8.61588 22.3134 8.61588Z" fill="white"/>
<path d="M21.2621 8.50209L17.1206 4.36067C16.8881 4.1281 16.5788 4 16.2498 4C15.9207 4 15.6114 4.1281 15.3789 4.36067L14.05 5.68953C13.93 5.80945 13.93 6.00384 14.05 6.12375C14.1699 6.24367 14.3643 6.24367 14.4842 6.12375L15.8131 4.79489C15.9297 4.67828 16.0848 4.61409 16.2498 4.61409C16.4148 4.61409 16.5698 4.67828 16.6864 4.79489L20.8278 8.93631C21.0686 9.17707 21.0686 9.56887 20.8278 9.80967L19.8761 10.7614C19.7562 10.8813 19.7562 11.0757 19.8761 11.1956C19.936 11.2555 20.0146 11.2855 20.0932 11.2855C20.1717 11.2855 20.2504 11.2556 20.3103 11.1956L21.2621 10.2439C21.7423 9.76366 21.7423 8.98232 21.2621 8.50209Z" fill="white"/>
<path d="M13.7781 6.39575C13.6581 6.27584 13.4638 6.27584 13.3438 6.39575L8.97812 10.7614C8.8582 10.8813 8.8582 11.0757 8.97812 11.1956C9.03808 11.2556 9.11666 11.2856 9.19525 11.2856C9.27379 11.2856 9.35242 11.2556 9.41238 11.1956L13.7781 6.82997C13.898 6.71006 13.898 6.51563 13.7781 6.39575Z" fill="white"/>
<path d="M19.4065 10.2576C19.3805 10.153 19.3016 10.0697 19.1985 10.0382C19.0885 10.0045 18.9918 9.94632 18.9104 9.86467C18.779 9.73343 18.7066 9.5588 18.7066 9.37304C18.7066 9.18728 18.779 9.01261 18.911 8.88088C18.9918 8.79979 19.0885 8.74157 19.1985 8.70786C19.3016 8.67629 19.3805 8.59307 19.4065 8.48851C19.4326 8.38396 19.4019 8.27336 19.3257 8.1972L17.4256 6.29711C17.3495 6.2209 17.2389 6.19025 17.1343 6.21626C17.0298 6.24231 16.9465 6.32122 16.915 6.42432C16.8814 6.53391 16.8231 6.6308 16.7415 6.71241C16.6102 6.84378 16.4356 6.91615 16.2498 6.91615C16.064 6.91615 15.8893 6.84378 15.7576 6.71193C15.6765 6.63108 15.6183 6.53435 15.5846 6.4244C15.5531 6.32134 15.4698 6.24239 15.3653 6.2163C15.2608 6.19017 15.1501 6.2209 15.0739 6.29711L10.6099 10.7613C10.49 10.8812 10.49 11.0757 10.6099 11.1956C10.7298 11.3155 10.9242 11.3155 11.0441 11.1956L15.2154 7.02393C15.2489 7.06696 15.285 7.10788 15.3236 7.14635C15.5709 7.39388 15.8998 7.5302 16.2497 7.5302C16.2498 7.5302 16.2498 7.5302 16.2498 7.5302C16.5997 7.5302 16.9286 7.39388 17.1758 7.14647C17.2144 7.10788 17.2505 7.06683 17.284 7.02377L18.5989 8.33864C18.5558 8.37211 18.5149 8.40824 18.4764 8.44686C18.2289 8.69411 18.0926 9.02301 18.0926 9.373C18.0926 9.72298 18.2289 10.0519 18.4759 10.2986C18.5145 10.3374 18.5557 10.3737 18.5989 10.4073L18.2448 10.7614C18.1248 10.8813 18.1248 11.0758 18.2447 11.1957C18.3047 11.2556 18.3833 11.2856 18.4619 11.2856C18.5404 11.2856 18.619 11.2557 18.679 11.1957L19.3257 10.549C19.4019 10.4727 19.4326 10.3621 19.4065 10.2576Z" fill="white"/>
<path d="M16.3093 10.9085C16.2186 10.5209 16.0214 10.1665 15.7387 9.88389C15.3345 9.47967 14.797 9.25702 14.2253 9.25702C13.6537 9.25702 13.1163 9.47963 12.712 9.88393C12.4293 10.1666 12.232 10.5209 12.1414 10.9085C12.1028 11.0737 12.2053 11.2388 12.3705 11.2774C12.5355 11.316 12.7007 11.2134 12.7393 11.0483C12.8039 10.7722 12.9446 10.5198 13.1462 10.3181C13.4344 10.0299 13.8176 9.87115 14.2252 9.87115C14.6329 9.87115 15.0161 10.0299 15.3044 10.3181C15.506 10.5197 15.6466 10.7722 15.7112 11.0483C15.7443 11.1899 15.8705 11.2855 16.0099 11.2855C16.033 11.2855 16.0566 11.2829 16.0801 11.2774C16.2453 11.2388 16.3478 11.0736 16.3093 10.9085Z" fill="white"/>
<path d="M23.0141 15.6577H20.2756C19.0463 15.6577 18.0463 16.6578 18.0463 17.887C18.0463 19.1162 19.0463 20.1163 20.2756 20.1163H23.0141C23.5578 20.1163 24 19.674 24 19.1305V16.6435C24 16.1 23.5578 15.6577 23.0141 15.6577ZM23.3859 19.1305C23.3859 19.3355 23.2191 19.5022 23.0141 19.5022H20.2756C19.3849 19.5022 18.6604 18.7777 18.6604 17.887C18.6604 16.9963 19.3849 16.2718 20.2756 16.2718H23.0141C23.2191 16.2718 23.3859 16.4385 23.3859 16.6435V19.1305Z" fill="white"/>
<path d="M20.2329 16.8111C19.6396 16.8111 19.1569 17.2938 19.1569 17.8871C19.1569 18.4803 19.6396 18.963 20.2329 18.963C20.8261 18.963 21.3088 18.4803 21.3088 17.8871C21.3088 17.2938 20.8261 16.8111 20.2329 16.8111ZM20.2329 18.3489C19.9782 18.3489 19.771 18.1417 19.771 17.8871C19.771 17.6324 19.9782 17.4252 20.2329 17.4252C20.4875 17.4252 20.6947 17.6324 20.6947 17.8871C20.6947 18.1417 20.4876 18.3489 20.2329 18.3489Z" fill="white"/>
</svg>
